<?xml version="1.0" standalone="no"?>
<!DOCTYPE svg PUBLIC "-//W3C//DTD SVG 1.1//EN" "http://www.w3.org/Graphics/SVG/1.1/DTD/svg11.dtd">
<svg version="1.1" id="Ebene_1" xmlns="http://www.w3.org/2000/svg" xmlns:xlink="http://www.w3.org/1999/xlink" x="0px" y="0px"
	 width="32px" height="32px" viewBox="0 0 32 32" enable-background="new 0 0 32 32">
    <g transform="matrix(-2.36053e-16,-1.28501,1.28501,-2.36053e-16,-366.471,399.95)">
        <g id="Ebene1">
            <path d="M300.855,297.64L291.337,288.122C291.197,287.982 291.197,287.756 291.337,287.617L293.66,285.293C293.8,285.154 294.026,285.154 294.165,285.293L306.249,297.377C306.322,297.45 306.352,297.545 306.349,297.64C306.352,297.735 306.322,297.83 306.249,297.903L294.165,309.987C294.026,310.126 293.8,310.126 293.66,309.987L291.337,307.663C291.197,307.524 291.197,307.298 291.337,307.158L300.855,297.64Z" style="fill:black;fill-rule:nonzero;"/>
        </g>
    </g>
</svg>
