<?xml version="1.0" standalone="no"?>
<!DOCTYPE svg PUBLIC "-//W3C//DTD SVG 1.1//EN" "http://www.w3.org/Graphics/SVG/1.1/DTD/svg11.dtd">
<svg width="100%" height="100%" viewBox="0 0 154 86" version="1.1" xmlns="http://www.w3.org/2000/svg" xmlns:xlink="http://www.w3.org/1999/xlink" xml:space="preserve" style="fill-rule:evenodd;clip-rule:evenodd;stroke-linejoin:round;stroke-miterlimit:1.41421;">
    <g transform="matrix(0.794196,0,0,0.794196,-11.9028,-6.61089)">
        <g id="Ebene1">
            <g>
                <path d="M15.106,67.95L17.697,67.95C20.066,67.95 20.584,68.737 20.584,71.021L20.584,78.031C20.584,80.118 20.251,80.985 18.437,81.221C20.177,81.339 20.584,82.245 20.584,84.411L20.584,93.154C20.584,95.319 20.14,96.225 17.697,96.225L15.106,96.225L15.106,67.95ZM16.55,80.906L17.512,80.906C18.808,80.906 19.141,80.236 19.141,78.661L19.141,70.746C19.141,69.17 18.845,68.501 17.475,68.501L16.55,68.501L16.55,80.906ZM16.55,95.674L17.512,95.674C18.808,95.674 19.141,95.004 19.141,93.429L19.141,83.781C19.141,82.205 18.845,81.536 17.475,81.536L16.55,81.536L16.55,95.674Z" style="fill:rgb(35,31,32);fill-rule:nonzero;"/>
                <path d="M27.728,67.674C29.949,67.674 30.468,68.658 30.468,70.785L30.468,96.225L29.024,96.225L29.024,81.733L26.433,81.733L26.433,96.225L24.989,96.225L24.989,70.785C24.989,68.658 25.507,67.674 27.728,67.674ZM26.433,80.906L29.024,80.906L29.024,70.509C29.024,69.052 28.802,68.225 27.728,68.225C26.655,68.225 26.433,69.052 26.433,70.509L26.433,80.906Z" style="fill:rgb(35,31,32);fill-rule:nonzero;"/>
                <path d="M36.168,85.671C35.243,80.118 34.539,74.211 34.095,67.95L35.576,67.95C35.835,72.991 36.316,78.268 37.019,83.742C37.723,78.464 38.278,73.187 38.722,67.95L39.685,67.95C39.388,72.321 38.648,78.071 37.612,85.199L37.612,96.225L36.168,96.225L36.168,85.671Z" style="fill:rgb(35,31,32);fill-rule:nonzero;"/>
                <path d="M46.052,67.674C48.273,67.674 48.791,68.658 48.791,70.785L48.791,96.225L47.347,96.225L47.347,81.733L44.756,81.733L44.756,96.225L43.312,96.225L43.312,70.785C43.312,68.658 43.831,67.674 46.052,67.674ZM44.756,80.906L47.347,80.906L47.347,70.509C47.347,69.052 47.125,68.225 46.052,68.225C44.978,68.225 44.756,69.052 44.756,70.509L44.756,80.906Z" style="fill:rgb(35,31,32);fill-rule:nonzero;"/>
                <path d="M57.23,83.781C57.23,82.205 56.934,81.536 55.565,81.536L54.639,81.536L54.639,96.225L53.196,96.225L53.196,67.95L55.787,67.95C58.156,67.95 58.674,68.737 58.674,71.021L58.674,78.031C58.674,80.118 58.341,80.985 56.527,81.221C58.267,81.339 58.674,82.245 58.674,84.411L58.674,96.225L57.23,96.225L57.23,83.781ZM54.639,80.906L55.602,80.906C56.897,80.906 57.23,80.236 57.23,78.661L57.23,70.746C57.23,69.17 56.934,68.501 55.565,68.501L54.639,68.501L54.639,80.906Z" style="fill:rgb(35,31,32);fill-rule:nonzero;"/>
                <path d="M63.079,67.95L65.67,67.95C68.039,67.95 68.557,68.737 68.557,71.021L68.557,93.154C68.557,95.319 68.113,96.225 65.67,96.225L63.079,96.225L63.079,67.95ZM65.485,95.674C66.781,95.674 67.114,95.004 67.114,93.429L67.114,70.746C67.114,69.17 66.818,68.501 65.448,68.501L64.523,68.501L64.523,95.674L65.485,95.674Z" style="fill:rgb(35,31,32);fill-rule:nonzero;"/>
                <path d="M124.089,70.785C124.089,68.658 124.607,67.674 126.828,67.674C129.048,67.674 129.567,68.658 129.567,70.785L129.567,76.338L128.123,76.338L128.123,70.509C128.123,69.052 127.902,68.225 126.828,68.225C125.755,68.225 125.532,69.052 125.532,70.509L125.532,93.665C125.532,95.162 125.718,95.95 126.828,95.95C127.902,95.95 128.123,95.162 128.123,93.665L128.123,87.207L129.567,87.207L129.567,93.39C129.567,95.517 129.048,96.501 126.828,96.501C124.607,96.501 124.089,95.517 124.089,93.39L124.089,70.785Z" style="fill:rgb(146,150,152);fill-rule:nonzero;"/>
                <path d="M133.713,70.785C133.713,68.658 134.232,67.674 136.453,67.674C138.674,67.674 139.192,68.658 139.192,70.785L139.192,93.39C139.192,95.517 138.674,96.501 136.453,96.501C134.232,96.501 133.713,95.517 133.713,93.39L133.713,70.785ZM136.453,95.95C137.526,95.95 137.748,95.162 137.748,93.665L137.748,70.509C137.748,69.052 137.526,68.225 136.453,68.225C135.379,68.225 135.157,69.052 135.157,70.509L135.157,93.665C135.157,95.162 135.342,95.95 136.453,95.95Z" style="fill:rgb(146,150,152);fill-rule:nonzero;"/>
                <path d="M143.597,67.95L144.744,67.95L147.965,87.483L147.668,67.95L149.076,67.95L149.076,96.225L147.668,96.225L147.668,90.436L144.707,72.675L145.003,96.225L143.597,96.225L143.597,67.95Z" style="fill:rgb(146,150,152);fill-rule:nonzero;"/>
                <path d="M154.665,74.172C154.665,75.078 154.702,76.062 155.294,77.441L157.293,82.166C157.922,83.663 158.7,85.159 158.7,87.955L158.7,93.39C158.7,95.517 158.181,96.501 155.96,96.501C153.739,96.501 153.221,95.517 153.221,93.39L153.221,87.207L154.665,87.207L154.665,93.665C154.665,95.162 154.85,95.95 155.96,95.95C157.033,95.95 157.256,95.162 157.256,93.665L157.256,88.388C157.256,86.144 156.849,84.844 156.145,83.229L154.516,79.409C153.924,78.031 153.221,76.614 153.221,74.526L153.221,70.785C153.221,68.658 153.739,67.674 155.96,67.674C158.181,67.674 158.7,68.658 158.7,70.785L158.7,76.259L157.256,76.259L157.256,70.509C157.256,69.052 157.033,68.225 155.96,68.225C154.886,68.225 154.665,69.052 154.665,70.509L154.665,74.172Z" style="fill:rgb(146,150,152);fill-rule:nonzero;"/>
                <path d="M164.289,93.665C164.289,95.162 164.474,95.95 165.585,95.95C166.658,95.95 166.88,95.162 166.88,93.665L166.88,67.95L168.324,67.95L168.324,93.39C168.324,95.517 167.805,96.501 165.585,96.501C163.363,96.501 162.845,95.517 162.845,93.39L162.845,67.95L164.289,67.95L164.289,93.665Z" style="fill:rgb(146,150,152);fill-rule:nonzero;"/>
                <path d="M172.728,67.95L174.172,67.95L174.172,95.398L176.838,95.398L176.838,96.225L172.728,96.225L172.728,67.95Z" style="fill:rgb(146,150,152);fill-rule:nonzero;"/>
                <path d="M181.021,68.777L178.947,68.777L178.947,67.95L184.537,67.95L184.537,68.777L182.464,68.777L182.464,96.225L181.021,96.225L181.021,68.777Z" style="fill:rgb(146,150,152);fill-rule:nonzero;"/>
                <rect x="187.683" y="67.95" width="1.444" height="28.275" style="fill:rgb(146,150,152);fill-rule:nonzero;"/>
                <path d="M193.532,67.95L194.679,67.95L197.9,87.483L197.604,67.95L199.011,67.95L199.011,96.225L197.604,96.225L197.604,90.436L194.642,72.675L194.939,96.225L193.532,96.225L193.532,67.95Z" style="fill:rgb(146,150,152);fill-rule:nonzero;"/>
                <path d="M203.416,70.785C203.416,68.658 203.934,67.674 206.155,67.674C208.376,67.674 208.894,68.658 208.894,70.785L208.894,76.338L207.45,76.338L207.45,70.509C207.45,69.052 207.228,68.225 206.155,68.225C205.081,68.225 204.859,69.052 204.859,70.509L204.859,93.665C204.859,95.162 205.044,95.95 206.155,95.95C207.228,95.95 207.45,95.162 207.45,93.665L207.45,83.112L205.822,83.112L205.822,82.285L208.894,82.285L208.894,93.39C208.894,95.517 208.376,96.501 206.155,96.501C203.934,96.501 203.416,95.517 203.416,93.39L203.416,70.785Z" style="fill:rgb(146,150,152);fill-rule:nonzero;"/>
                <path d="M100.489,55.08C100.489,49.986 101.942,47.628 108.167,47.628C114.393,47.628 115.846,49.986 115.846,55.08L115.846,68.38L111.799,68.38L111.799,54.42C111.799,50.93 111.177,48.949 108.167,48.949C105.158,48.949 104.536,50.93 104.536,54.42L104.536,109.885C104.536,113.469 105.055,115.356 108.167,115.356C111.177,115.356 111.799,113.469 111.799,109.885L111.799,94.415L115.846,94.415L115.846,109.224C115.846,114.318 114.393,116.676 108.167,116.676C101.942,116.676 100.489,114.318 100.489,109.224L100.489,55.08Z" style="fill:rgb(166,206,56);fill-rule:nonzero;"/>
                <path d="M88.033,47.629C86.573,47.629 85.379,47.76 84.401,48.024L84.401,8.324L80.354,8.324L80.354,68.381L84.401,68.381L84.401,54.42C84.401,50.93 85.024,48.949 88.033,48.949C91.042,48.949 91.664,50.93 91.664,54.42L91.664,109.885C91.664,113.469 91.145,115.356 88.033,115.356C85.024,115.356 84.401,113.469 84.401,109.885L84.401,94.415L80.354,94.415L80.354,109.225C80.354,114.319 81.807,116.676 88.033,116.676C94.258,116.676 95.711,114.319 95.711,109.225L95.711,55.081C95.711,49.987 94.258,47.629 88.033,47.629Z" style="fill:rgb(166,206,56);fill-rule:nonzero;"/>
            </g>
        </g>
    </g>
</svg>
